<svg width="97" height="27" viewBox="0 0 97 27" fill="none" xmlns="http://www.w3.org/2000/svg">
<rect width="97" height="27" rx="4" fill="#1B1B1B"/>
<path d="M43.2705 18H42.3672V12.043L40.5068 12.751V11.9258L43.1973 10.8906H43.2705V18ZM50.707 18H46.0488V17.3506L48.3779 14.7627C48.5863 14.5316 48.7604 14.3265 48.9004 14.1475C49.0404 13.9684 49.1527 13.804 49.2373 13.6543C49.3219 13.5013 49.3822 13.3581 49.418 13.2246C49.4538 13.0879 49.4717 12.9479 49.4717 12.8047C49.4717 12.6289 49.4424 12.4645 49.3838 12.3115C49.3285 12.1553 49.2454 12.0202 49.1348 11.9062C49.0273 11.7923 48.8955 11.7028 48.7393 11.6377C48.5863 11.5693 48.4121 11.5352 48.2168 11.5352C47.9792 11.5352 47.7725 11.5693 47.5967 11.6377C47.4242 11.7061 47.2793 11.8037 47.1621 11.9307C47.0482 12.0544 46.9619 12.2057 46.9033 12.3848C46.848 12.5638 46.8203 12.764 46.8203 12.9854H45.9121C45.9121 12.6859 45.9642 12.4043 46.0684 12.1406C46.1725 11.8737 46.3223 11.641 46.5176 11.4424C46.7161 11.2438 46.957 11.0859 47.2402 10.9688C47.5267 10.8516 47.8522 10.793 48.2168 10.793C48.5521 10.793 48.8532 10.8434 49.1201 10.9443C49.3903 11.042 49.6182 11.1787 49.8037 11.3545C49.9893 11.5303 50.1309 11.7386 50.2285 11.9795C50.3294 12.2204 50.3799 12.4824 50.3799 12.7656C50.3799 12.9772 50.3441 13.1872 50.2725 13.3955C50.2008 13.6006 50.1032 13.804 49.9795 14.0059C49.859 14.2077 49.7174 14.4079 49.5547 14.6064C49.3952 14.8018 49.2259 14.9971 49.0469 15.1924L47.1377 17.2627H50.707V18ZM56.7275 12.7461C56.7243 13.1009 56.6283 13.4167 56.4395 13.6934C56.2507 13.9701 55.9984 14.1865 55.6826 14.3428C55.8649 14.4209 56.0293 14.5186 56.1758 14.6357C56.3255 14.7497 56.4525 14.8815 56.5566 15.0312C56.6641 15.181 56.7454 15.3438 56.8008 15.5195C56.8594 15.6953 56.8887 15.8825 56.8887 16.0811C56.8887 16.4033 56.8285 16.6898 56.708 16.9404C56.5908 17.1911 56.4297 17.4027 56.2246 17.5752C56.0228 17.7445 55.7852 17.8747 55.5117 17.9658C55.2383 18.0537 54.9453 18.0977 54.6328 18.0977C54.3138 18.0977 54.016 18.0537 53.7393 17.9658C53.4658 17.8779 53.2266 17.7493 53.0215 17.5801C52.8197 17.4076 52.6602 17.196 52.543 16.9453C52.4258 16.6947 52.3672 16.4066 52.3672 16.0811C52.3672 15.8825 52.3949 15.6953 52.4502 15.5195C52.5055 15.3405 52.5853 15.1777 52.6895 15.0312C52.7936 14.8815 52.9189 14.748 53.0654 14.6309C53.2119 14.5137 53.3763 14.416 53.5586 14.3379C53.4023 14.2598 53.2607 14.167 53.1338 14.0596C53.0068 13.9489 52.8994 13.8268 52.8115 13.6934C52.7236 13.5566 52.6553 13.4085 52.6064 13.249C52.5576 13.0895 52.5332 12.9219 52.5332 12.7461C52.5332 12.4368 52.5853 12.1618 52.6895 11.9209C52.7936 11.6768 52.9368 11.4717 53.1191 11.3057C53.3047 11.1396 53.5244 11.0127 53.7783 10.9248C54.0355 10.8369 54.3154 10.793 54.6182 10.793C54.9176 10.793 55.196 10.8369 55.4531 10.9248C55.7103 11.0127 55.9333 11.1396 56.1221 11.3057C56.3109 11.4717 56.459 11.6768 56.5664 11.9209C56.6738 12.1618 56.7275 12.4368 56.7275 12.7461ZM55.9854 16.0615C55.9854 15.863 55.9512 15.6807 55.8828 15.5146C55.8177 15.3486 55.7249 15.207 55.6045 15.0898C55.484 14.9694 55.3392 14.8766 55.1699 14.8115C55.0039 14.7464 54.8216 14.7139 54.623 14.7139C54.418 14.7139 54.2324 14.7464 54.0664 14.8115C53.9004 14.8766 53.7588 14.9694 53.6416 15.0898C53.5244 15.207 53.4333 15.3486 53.3682 15.5146C53.3063 15.6807 53.2754 15.863 53.2754 16.0615C53.2754 16.2666 53.3063 16.4505 53.3682 16.6133C53.4333 16.7728 53.5244 16.9079 53.6416 17.0186C53.7588 17.1292 53.9004 17.2139 54.0664 17.2725C54.2357 17.3311 54.4245 17.3604 54.6328 17.3604C54.8314 17.3604 55.0137 17.3311 55.1797 17.2725C55.3457 17.2139 55.4873 17.1292 55.6045 17.0186C55.7249 16.9079 55.8177 16.7728 55.8828 16.6133C55.9512 16.4505 55.9854 16.2666 55.9854 16.0615ZM55.8193 12.7607C55.8193 12.5817 55.7884 12.4173 55.7266 12.2676C55.668 12.1178 55.585 11.9893 55.4775 11.8818C55.3734 11.7712 55.248 11.6865 55.1016 11.6279C54.9551 11.5661 54.7939 11.5352 54.6182 11.5352C54.4424 11.5352 54.2829 11.5645 54.1396 11.623C53.9964 11.6784 53.8727 11.7598 53.7686 11.8672C53.6644 11.9746 53.583 12.1048 53.5244 12.2578C53.4691 12.4076 53.4414 12.5752 53.4414 12.7607C53.4414 12.9463 53.4691 13.1139 53.5244 13.2637C53.583 13.4102 53.6644 13.5371 53.7686 13.6445C53.876 13.7487 54.0013 13.8301 54.1445 13.8887C54.291 13.944 54.4521 13.9717 54.6279 13.9717C54.8005 13.9717 54.96 13.944 55.1064 13.8887C55.2529 13.8301 55.3783 13.7487 55.4824 13.6445C55.5898 13.5371 55.6729 13.4085 55.7314 13.2588C55.79 13.109 55.8193 12.943 55.8193 12.7607Z" fill="#F8D457"/>
</svg>
