<svg width="97" height="81" viewBox="0 0 97 81" fill="none" xmlns="http://www.w3.org/2000/svg">
<rect width="97" height="81" rx="4" fill="#1B1B1B"/>
<path d="M30.7422 17.2891C30.7083 17.5521 30.6406 17.7943 30.5391 18.0156C30.4375 18.2344 30.3047 18.4232 30.1406 18.582C29.9792 18.7383 29.7865 18.8607 29.5625 18.9492C29.3411 19.0352 29.0938 19.0781 28.8203 19.0781C28.5859 19.0781 28.3724 19.0456 28.1797 18.9805C27.9896 18.9128 27.819 18.8203 27.668 18.7031C27.5195 18.5859 27.3906 18.4479 27.2812 18.2891C27.1745 18.1302 27.0846 17.957 27.0117 17.7695C26.9414 17.582 26.888 17.3854 26.8516 17.1797C26.8177 16.974 26.7995 16.7656 26.7969 16.5547V15.7617C26.7995 15.5508 26.8177 15.3424 26.8516 15.1367C26.888 14.931 26.9414 14.7344 27.0117 14.5469C27.0846 14.3594 27.1745 14.1862 27.2812 14.0273C27.3906 13.8659 27.5195 13.7266 27.668 13.6094C27.819 13.4922 27.9896 13.401 28.1797 13.3359C28.3698 13.2682 28.5833 13.2344 28.8203 13.2344C29.1042 13.2344 29.3581 13.2786 29.582 13.3672C29.806 13.4531 29.9987 13.5768 30.1602 13.7383C30.3216 13.8971 30.4505 14.0885 30.5469 14.3125C30.6458 14.5365 30.7109 14.7839 30.7422 15.0547H30.0195C29.9961 14.8828 29.9557 14.7227 29.8984 14.5742C29.8411 14.4258 29.7643 14.2956 29.668 14.1836C29.5716 14.0716 29.4531 13.9844 29.3125 13.9219C29.1745 13.8568 29.0104 13.8242 28.8203 13.8242C28.6484 13.8242 28.4961 13.8529 28.3633 13.9102C28.2331 13.9648 28.1198 14.0404 28.0234 14.1367C27.9297 14.2331 27.8503 14.3451 27.7852 14.4727C27.7227 14.6003 27.6719 14.7357 27.6328 14.8789C27.5938 15.0221 27.5651 15.1693 27.5469 15.3203C27.5312 15.4688 27.5234 15.6133 27.5234 15.7539V16.5547C27.5234 16.6953 27.5312 16.8411 27.5469 16.9922C27.5651 17.1406 27.5938 17.2878 27.6328 17.4336C27.6719 17.5768 27.7227 17.7122 27.7852 17.8398C27.8477 17.9674 27.9271 18.0807 28.0234 18.1797C28.1198 18.276 28.2331 18.3529 28.3633 18.4102C28.4935 18.4648 28.6458 18.4922 28.8203 18.4922C29.0104 18.4922 29.1745 18.4622 29.3125 18.4023C29.4531 18.3424 29.5716 18.2591 29.668 18.1523C29.7643 18.043 29.8411 17.9154 29.8984 17.7695C29.9557 17.6211 29.9961 17.4609 30.0195 17.2891H30.7422ZM31.6602 16.8477C31.6602 16.543 31.7044 16.2604 31.793 16C31.8815 15.737 32.0078 15.5091 32.1719 15.3164C32.3385 15.1237 32.5404 14.9727 32.7773 14.8633C33.0143 14.7513 33.2812 14.6953 33.5781 14.6953C33.8776 14.6953 34.1458 14.7513 34.3828 14.8633C34.6224 14.9727 34.8242 15.1237 34.9883 15.3164C35.1549 15.5091 35.2826 15.737 35.3711 16C35.4596 16.2604 35.5039 16.543 35.5039 16.8477V16.9336C35.5039 17.2383 35.4596 17.5208 35.3711 17.7812C35.2826 18.0417 35.1549 18.2682 34.9883 18.4609C34.8242 18.6536 34.6237 18.8047 34.3867 18.9141C34.1497 19.0234 33.8828 19.0781 33.5859 19.0781C33.2865 19.0781 33.0169 19.0234 32.7773 18.9141C32.5404 18.8047 32.3385 18.6536 32.1719 18.4609C32.0078 18.2682 31.8815 18.0417 31.793 17.7812C31.7044 17.5208 31.6602 17.2383 31.6602 16.9336V16.8477ZM32.3828 16.9336C32.3828 17.1419 32.4076 17.3411 32.457 17.5312C32.5065 17.7188 32.5807 17.8841 32.6797 18.0273C32.7812 18.1706 32.9076 18.2839 33.0586 18.3672C33.2096 18.4505 33.3854 18.4922 33.5859 18.4922C33.7839 18.4922 33.957 18.4505 34.1055 18.3672C34.2565 18.2839 34.3815 18.1706 34.4805 18.0273C34.582 17.8841 34.6576 17.7188 34.707 17.5312C34.7565 17.3411 34.7812 17.1419 34.7812 16.9336V16.8477C34.7812 16.6419 34.7552 16.4453 34.7031 16.2578C34.6536 16.0677 34.5781 15.901 34.4766 15.7578C34.3776 15.6146 34.2526 15.5013 34.1016 15.418C33.9531 15.332 33.7786 15.2891 33.5781 15.2891C33.3776 15.2891 33.2031 15.332 33.0547 15.418C32.9062 15.5013 32.7812 15.6146 32.6797 15.7578C32.5807 15.901 32.5065 16.0677 32.457 16.2578C32.4076 16.4453 32.3828 16.6419 32.3828 16.8477V16.9336ZM36.5312 16.8516C36.5312 16.5365 36.5703 16.2474 36.6484 15.9844C36.7292 15.7188 36.8424 15.4909 36.9883 15.3008C37.1367 15.1107 37.3151 14.9622 37.5234 14.8555C37.7318 14.7487 37.9648 14.6953 38.2227 14.6953C38.4753 14.6953 38.6953 14.7383 38.8828 14.8242C39.0729 14.9076 39.237 15.0299 39.375 15.1914V13H40.0977V19H39.4336L39.4023 18.5547C39.2617 18.7266 39.0938 18.8568 38.8984 18.9453C38.7031 19.0339 38.4753 19.0781 38.2148 19.0781C37.9596 19.0781 37.7279 19.0234 37.5195 18.9141C37.3138 18.8047 37.138 18.6536 36.9922 18.4609C36.8464 18.2682 36.7331 18.0417 36.6523 17.7812C36.5716 17.5182 36.5312 17.2357 36.5312 16.9336V16.8516ZM37.2539 16.9336C37.2539 17.1393 37.276 17.3346 37.3203 17.5195C37.3646 17.7044 37.4323 17.8672 37.5234 18.0078C37.6172 18.1484 37.7357 18.2604 37.8789 18.3438C38.0221 18.4245 38.194 18.4648 38.3945 18.4648C38.5169 18.4648 38.6276 18.4505 38.7266 18.4219C38.8255 18.3932 38.9154 18.3529 38.9961 18.3008C39.0768 18.2461 39.1484 18.1823 39.2109 18.1094C39.2734 18.0339 39.3281 17.9505 39.375 17.8594V15.8984C39.2812 15.7266 39.1549 15.5859 38.9961 15.4766C38.8372 15.3646 38.6393 15.3086 38.4023 15.3086C38.1992 15.3086 38.0247 15.3503 37.8789 15.4336C37.7357 15.5169 37.6172 15.6302 37.5234 15.7734C37.4323 15.9141 37.3646 16.0781 37.3203 16.2656C37.276 16.4505 37.2539 16.6458 37.2539 16.8516V16.9336ZM43.3398 19.0781C43.043 19.0781 42.7695 19.0273 42.5195 18.9258C42.2721 18.8242 42.0599 18.6823 41.8828 18.5C41.7057 18.3177 41.5677 18.1016 41.4688 17.8516C41.3698 17.6016 41.3203 17.3294 41.3203 17.0352V16.8711C41.3203 16.5299 41.375 16.2253 41.4844 15.957C41.5938 15.6862 41.7383 15.4583 41.918 15.2734C42.1003 15.0859 42.306 14.9427 42.5352 14.8438C42.7669 14.7448 43.0039 14.6953 43.2461 14.6953C43.5508 14.6953 43.8164 14.7487 44.043 14.8555C44.2721 14.9596 44.4622 15.1055 44.6133 15.293C44.7643 15.4779 44.8763 15.6966 44.9492 15.9492C45.0247 16.2018 45.0625 16.4753 45.0625 16.7695V17.0938H42.043C42.0508 17.2865 42.0872 17.4674 42.1523 17.6367C42.2201 17.806 42.3112 17.9544 42.4258 18.082C42.543 18.207 42.6823 18.306 42.8438 18.3789C43.0052 18.4518 43.1836 18.4883 43.3789 18.4883C43.6367 18.4883 43.8659 18.4362 44.0664 18.332C44.2669 18.2279 44.4336 18.0898 44.5664 17.918L45.0078 18.2617C44.9375 18.3685 44.849 18.4714 44.7422 18.5703C44.638 18.6667 44.5169 18.7526 44.3789 18.8281C44.2409 18.9036 44.0846 18.9635 43.9102 19.0078C43.7357 19.0547 43.5456 19.0781 43.3398 19.0781ZM43.2461 15.2891C43.1003 15.2891 42.9622 15.3164 42.832 15.3711C42.7018 15.4232 42.5846 15.5013 42.4805 15.6055C42.3763 15.707 42.2878 15.8333 42.2148 15.9844C42.1445 16.1328 42.0951 16.3047 42.0664 16.5H44.3398V16.4453C44.332 16.3047 44.3047 16.1654 44.2578 16.0273C44.2135 15.8893 44.1471 15.7656 44.0586 15.6562C43.9701 15.5469 43.8581 15.4583 43.7227 15.3906C43.5898 15.3229 43.431 15.2891 43.2461 15.2891ZM51.875 13.3125L52.8008 16.1562L53.8008 13.3125H54.6992V19H53.9961V16.7305L54.0547 14.3555L53.0039 17.418H52.5898L51.625 14.4375L51.6836 16.7305V19H50.9805V13.3125H51.875ZM55.8867 13.3125H59.3242V13.9414H57.9609V18.375H59.3242V19H55.8867V18.375H57.2188V13.9414H55.8867V13.3125ZM60.6172 19V13.3125H61.9336C62.3294 13.3177 62.6823 13.3854 62.9922 13.5156C63.3047 13.6432 63.5677 13.8229 63.7812 14.0547C63.9974 14.2839 64.1615 14.5599 64.2734 14.8828C64.388 15.2031 64.4466 15.5586 64.4492 15.9492V16.3672C64.4466 16.7578 64.388 17.1146 64.2734 17.4375C64.1615 17.7578 63.9974 18.0339 63.7812 18.2656C63.5677 18.4948 63.3047 18.6745 62.9922 18.8047C62.6823 18.9323 62.3294 18.9974 61.9336 19H60.6172ZM61.3516 13.9062V18.4102H61.9336C62.2409 18.4076 62.5065 18.3542 62.7305 18.25C62.9544 18.1432 63.1393 17.9987 63.2852 17.8164C63.4336 17.6341 63.543 17.4193 63.6133 17.1719C63.6862 16.9245 63.724 16.6562 63.7266 16.3672V15.9414C63.724 15.6523 63.6862 15.3854 63.6133 15.1406C63.5404 14.8932 63.431 14.6797 63.2852 14.5C63.1393 14.3177 62.9544 14.1745 62.7305 14.0703C62.5065 13.9661 62.2409 13.9115 61.9336 13.9062H61.3516ZM65.4961 13.3125H68.9336V13.9414H67.5703V18.375H68.9336V19H65.4961V18.375H66.8281V13.9414H65.4961V13.3125Z" fill="#F8D457"/>
<path d="M27.875 41.3867H30.6562V42H27.1523V36.3125H27.875V41.3867ZM34.6406 42C34.612 41.9453 34.5885 41.8776 34.5703 41.7969C34.5547 41.7135 34.543 41.6276 34.5352 41.5391C34.4622 41.612 34.3802 41.681 34.2891 41.7461C34.2005 41.8112 34.1016 41.8685 33.9922 41.918C33.8854 41.9674 33.7708 42.0065 33.6484 42.0352C33.526 42.0638 33.3958 42.0781 33.2578 42.0781C33.0339 42.0781 32.8307 42.0456 32.6484 41.9805C32.4688 41.9154 32.3151 41.8281 32.1875 41.7188C32.0625 41.6068 31.9648 41.4753 31.8945 41.3242C31.8268 41.1706 31.793 41.0052 31.793 40.8281C31.793 40.5964 31.8385 40.3932 31.9297 40.2188C32.0234 40.0443 32.1549 39.8997 32.3242 39.7852C32.4935 39.668 32.6966 39.5807 32.9336 39.5234C33.1732 39.4661 33.4401 39.4375 33.7344 39.4375H34.5234V39.1055C34.5234 38.9779 34.5 38.8633 34.4531 38.7617C34.4062 38.6602 34.3398 38.5742 34.2539 38.5039C34.168 38.431 34.0625 38.375 33.9375 38.3359C33.8151 38.2969 33.6771 38.2773 33.5234 38.2773C33.3802 38.2773 33.2513 38.2956 33.1367 38.332C33.0247 38.3685 32.9297 38.4167 32.8516 38.4766C32.7734 38.5365 32.7122 38.6081 32.668 38.6914C32.6263 38.7721 32.6055 38.8568 32.6055 38.9453H31.8789C31.8815 38.7917 31.9206 38.6406 31.9961 38.4922C32.0742 38.3438 32.1849 38.2109 32.3281 38.0938C32.474 37.974 32.6497 37.8776 32.8555 37.8047C33.0638 37.7318 33.2995 37.6953 33.5625 37.6953C33.8021 37.6953 34.0247 37.7253 34.2305 37.7852C34.4362 37.8424 34.6133 37.931 34.7617 38.0508C34.9128 38.168 35.0312 38.3151 35.1172 38.4922C35.2031 38.6693 35.2461 38.8763 35.2461 39.1133V41.0781C35.2461 41.2188 35.2591 41.3685 35.2852 41.5273C35.3112 41.6836 35.3477 41.8203 35.3945 41.9375V42H34.6406ZM33.3633 41.4492C33.5039 41.4492 33.6354 41.431 33.7578 41.3945C33.8802 41.3581 33.9909 41.3099 34.0898 41.25C34.1914 41.1901 34.2786 41.1224 34.3516 41.0469C34.4245 40.9688 34.4818 40.888 34.5234 40.8047V39.9492H33.8516C33.4297 39.9492 33.1016 40.0117 32.8672 40.1367C32.6328 40.2617 32.5156 40.4583 32.5156 40.7266C32.5156 40.8307 32.5326 40.9271 32.5664 41.0156C32.6029 41.1042 32.6562 41.181 32.7266 41.2461C32.7969 41.3086 32.8854 41.3581 32.9922 41.3945C33.099 41.431 33.2227 41.4492 33.3633 41.4492ZM39.4102 41.418C39.2695 41.6263 39.0938 41.7891 38.8828 41.9062C38.6719 42.0208 38.4284 42.0781 38.1523 42.0781C37.931 42.0781 37.7305 42.0443 37.5508 41.9766C37.3711 41.9062 37.2174 41.7982 37.0898 41.6523C36.9622 41.5065 36.8633 41.3216 36.793 41.0977C36.7253 40.8711 36.6914 40.6003 36.6914 40.2852V37.7734H37.4141V40.293C37.4141 40.5221 37.4323 40.7122 37.4688 40.8633C37.5052 41.0143 37.5599 41.1354 37.6328 41.2266C37.7057 41.3151 37.7943 41.3776 37.8984 41.4141C38.0052 41.4505 38.1276 41.4688 38.2656 41.4688C38.5599 41.4688 38.7969 41.4089 38.9766 41.2891C39.1589 41.1693 39.2943 41.0078 39.3828 40.8047V37.7734H40.1094V42H39.4531L39.4102 41.418ZM42.1211 37.7734L42.1719 38.3984C42.3255 38.1797 42.5143 38.0091 42.7383 37.8867C42.9622 37.7617 43.2122 37.6979 43.4883 37.6953C43.7096 37.6953 43.9102 37.7266 44.0898 37.7891C44.2721 37.8516 44.4271 37.9492 44.5547 38.082C44.6823 38.2148 44.7799 38.3841 44.8477 38.5898C44.918 38.793 44.9531 39.0352 44.9531 39.3164V42H44.2305V39.332C44.2305 39.1445 44.2096 38.9857 44.168 38.8555C44.1263 38.7253 44.0638 38.6198 43.9805 38.5391C43.8997 38.4583 43.7995 38.3997 43.6797 38.3633C43.5625 38.3268 43.4271 38.3086 43.2734 38.3086C43.0312 38.3086 42.8177 38.3698 42.6328 38.4922C42.4505 38.612 42.3047 38.7708 42.1953 38.9688V42H41.4727V37.7734H42.1211ZM48.0781 41.4922C48.2083 41.4922 48.3346 41.4714 48.457 41.4297C48.582 41.388 48.6927 41.3307 48.7891 41.2578C48.8854 41.1823 48.9622 41.0951 49.0195 40.9961C49.0794 40.8945 49.1107 40.7852 49.1133 40.668H49.7969C49.7943 40.8555 49.7448 41.0352 49.6484 41.207C49.5547 41.3763 49.4284 41.526 49.2695 41.6562C49.1107 41.7839 48.9284 41.8867 48.7227 41.9648C48.5169 42.0404 48.3021 42.0781 48.0781 42.0781C47.7578 42.0781 47.4779 42.0208 47.2383 41.9062C46.9987 41.7917 46.7982 41.638 46.6367 41.4453C46.4779 41.25 46.3581 41.026 46.2773 40.7734C46.1966 40.5182 46.1562 40.25 46.1562 39.9688V39.8047C46.1562 39.526 46.1966 39.2591 46.2773 39.0039C46.3581 38.7487 46.4779 38.5247 46.6367 38.332C46.7982 38.1367 46.9987 37.9818 47.2383 37.8672C47.4779 37.7526 47.7578 37.6953 48.0781 37.6953C48.3281 37.6953 48.5573 37.7357 48.7656 37.8164C48.9766 37.8945 49.1576 38.0026 49.3086 38.1406C49.4622 38.276 49.582 38.4375 49.668 38.625C49.7539 38.8125 49.7969 39.013 49.7969 39.2266H49.1133C49.1107 39.099 49.082 38.9792 49.0273 38.8672C48.9753 38.7526 48.9036 38.6523 48.8125 38.5664C48.7214 38.4805 48.612 38.4128 48.4844 38.3633C48.3594 38.3138 48.224 38.2891 48.0781 38.2891C47.8542 38.2891 47.6654 38.3346 47.5117 38.4258C47.3607 38.5143 47.2383 38.6315 47.1445 38.7773C47.0508 38.9206 46.9831 39.082 46.9414 39.2617C46.9023 39.4414 46.8828 39.6224 46.8828 39.8047V39.9688C46.8828 40.1536 46.9023 40.3372 46.9414 40.5195C46.9831 40.6992 47.0495 40.862 47.1406 41.0078C47.2344 41.151 47.3568 41.2682 47.5078 41.3594C47.6615 41.4479 47.8516 41.4922 48.0781 41.4922ZM51.8047 38.4023C51.9557 38.181 52.1419 38.0091 52.3633 37.8867C52.5846 37.7617 52.8333 37.6979 53.1094 37.6953C53.3307 37.6953 53.5312 37.7279 53.7109 37.793C53.8932 37.8555 54.0482 37.9544 54.1758 38.0898C54.3034 38.2253 54.401 38.3971 54.4688 38.6055C54.5391 38.8112 54.5742 39.056 54.5742 39.3398V42H53.8516V39.332C53.8516 38.9857 53.7682 38.7279 53.6016 38.5586C53.4375 38.3893 53.2018 38.306 52.8945 38.3086C52.6628 38.3086 52.4518 38.3659 52.2617 38.4805C52.0742 38.5924 51.9219 38.7422 51.8047 38.9297V42H51.082V36H51.8047V38.4023ZM59.4531 39.9336C59.4531 40.2357 59.4167 40.5182 59.3438 40.7812C59.2708 41.0417 59.1641 41.2682 59.0234 41.4609C58.8828 41.6536 58.7083 41.8047 58.5 41.9141C58.2943 42.0234 58.0586 42.0781 57.793 42.0781C57.5352 42.0781 57.3073 42.0365 57.1094 41.9531C56.9141 41.8698 56.7461 41.75 56.6055 41.5938V43.625H55.8828V37.7734H56.543L56.5781 38.2344C56.7188 38.0599 56.888 37.9271 57.0859 37.8359C57.2865 37.7422 57.5182 37.6953 57.7812 37.6953C58.0521 37.6953 58.2917 37.7487 58.5 37.8555C58.7083 37.9622 58.8828 38.1107 59.0234 38.3008C59.1641 38.4909 59.2708 38.7188 59.3438 38.9844C59.4167 39.2474 59.4531 39.5365 59.4531 39.8516V39.9336ZM58.7305 39.8516C58.7305 39.6458 58.707 39.4505 58.6602 39.2656C58.6159 39.0781 58.5456 38.9141 58.4492 38.7734C58.3555 38.6302 58.2357 38.5169 58.0898 38.4336C57.944 38.3503 57.7695 38.3086 57.5664 38.3086C57.3346 38.3086 57.1393 38.3633 56.9805 38.4727C56.8242 38.5794 56.6992 38.7174 56.6055 38.8867V40.9219C56.6992 41.0885 56.8242 41.2253 56.9805 41.332C57.1367 41.4362 57.3346 41.4883 57.5742 41.4883C57.7747 41.4883 57.9479 41.4466 58.0938 41.3633C58.2396 41.2773 58.3594 41.1628 58.4531 41.0195C58.5469 40.8763 58.6159 40.7109 58.6602 40.5234C58.707 40.3359 58.7305 40.1393 58.7305 39.9336V39.8516ZM63.4688 42C63.4401 41.9453 63.4167 41.8776 63.3984 41.7969C63.3828 41.7135 63.3711 41.6276 63.3633 41.5391C63.2904 41.612 63.2083 41.681 63.1172 41.7461C63.0286 41.8112 62.9297 41.8685 62.8203 41.918C62.7135 41.9674 62.599 42.0065 62.4766 42.0352C62.3542 42.0638 62.224 42.0781 62.0859 42.0781C61.862 42.0781 61.6589 42.0456 61.4766 41.9805C61.2969 41.9154 61.1432 41.8281 61.0156 41.7188C60.8906 41.6068 60.793 41.4753 60.7227 41.3242C60.6549 41.1706 60.6211 41.0052 60.6211 40.8281C60.6211 40.5964 60.6667 40.3932 60.7578 40.2188C60.8516 40.0443 60.9831 39.8997 61.1523 39.7852C61.3216 39.668 61.5247 39.5807 61.7617 39.5234C62.0013 39.4661 62.2682 39.4375 62.5625 39.4375H63.3516V39.1055C63.3516 38.9779 63.3281 38.8633 63.2812 38.7617C63.2344 38.6602 63.168 38.5742 63.082 38.5039C62.9961 38.431 62.8906 38.375 62.7656 38.3359C62.6432 38.2969 62.5052 38.2773 62.3516 38.2773C62.2083 38.2773 62.0794 38.2956 61.9648 38.332C61.8529 38.3685 61.7578 38.4167 61.6797 38.4766C61.6016 38.5365 61.5404 38.6081 61.4961 38.6914C61.4544 38.7721 61.4336 38.8568 61.4336 38.9453H60.707C60.7096 38.7917 60.7487 38.6406 60.8242 38.4922C60.9023 38.3438 61.013 38.2109 61.1562 38.0938C61.3021 37.974 61.4779 37.8776 61.6836 37.8047C61.8919 37.7318 62.1276 37.6953 62.3906 37.6953C62.6302 37.6953 62.8529 37.7253 63.0586 37.7852C63.2643 37.8424 63.4414 37.931 63.5898 38.0508C63.7409 38.168 63.8594 38.3151 63.9453 38.4922C64.0312 38.6693 64.0742 38.8763 64.0742 39.1133V41.0781C64.0742 41.2188 64.0872 41.3685 64.1133 41.5273C64.1393 41.6836 64.1758 41.8203 64.2227 41.9375V42H63.4688ZM62.1914 41.4492C62.332 41.4492 62.4635 41.431 62.5859 41.3945C62.7083 41.3581 62.819 41.3099 62.918 41.25C63.0195 41.1901 63.1068 41.1224 63.1797 41.0469C63.2526 40.9688 63.3099 40.888 63.3516 40.8047V39.9492H62.6797C62.2578 39.9492 61.9297 40.0117 61.6953 40.1367C61.4609 40.2617 61.3438 40.4583 61.3438 40.7266C61.3438 40.8307 61.3607 40.9271 61.3945 41.0156C61.431 41.1042 61.4844 41.181 61.5547 41.2461C61.625 41.3086 61.7135 41.3581 61.8203 41.3945C61.9271 41.431 62.0508 41.4492 62.1914 41.4492ZM65.3594 39.8516C65.3594 39.5365 65.3984 39.2474 65.4766 38.9844C65.5573 38.7188 65.6706 38.4909 65.8164 38.3008C65.9648 38.1107 66.1432 37.9622 66.3516 37.8555C66.5599 37.7487 66.793 37.6953 67.0508 37.6953C67.3034 37.6953 67.5234 37.7383 67.7109 37.8242C67.901 37.9076 68.0651 38.0299 68.2031 38.1914V36H68.9258V42H68.2617L68.2305 41.5547C68.0898 41.7266 67.9219 41.8568 67.7266 41.9453C67.5312 42.0339 67.3034 42.0781 67.043 42.0781C66.7878 42.0781 66.556 42.0234 66.3477 41.9141C66.1419 41.8047 65.9661 41.6536 65.8203 41.4609C65.6745 41.2682 65.5612 41.0417 65.4805 40.7812C65.3997 40.5182 65.3594 40.2357 65.3594 39.9336V39.8516ZM66.082 39.9336C66.082 40.1393 66.1042 40.3346 66.1484 40.5195C66.1927 40.7044 66.2604 40.8672 66.3516 41.0078C66.4453 41.1484 66.5638 41.2604 66.707 41.3438C66.8503 41.4245 67.0221 41.4648 67.2227 41.4648C67.3451 41.4648 67.4557 41.4505 67.5547 41.4219C67.6536 41.3932 67.7435 41.3529 67.8242 41.3008C67.9049 41.2461 67.9766 41.1823 68.0391 41.1094C68.1016 41.0339 68.1562 40.9505 68.2031 40.8594V38.8984C68.1094 38.7266 67.9831 38.5859 67.8242 38.4766C67.6654 38.3646 67.4674 38.3086 67.2305 38.3086C67.0273 38.3086 66.8529 38.3503 66.707 38.4336C66.5638 38.5169 66.4453 38.6302 66.3516 38.7734C66.2604 38.9141 66.1927 39.0781 66.1484 39.2656C66.1042 39.4505 66.082 39.6458 66.082 39.8516V39.9336Z" fill="#F8D457"/>
<path d="M22.5664 64.5273H20.668L20.2109 66H19.4883L21.3242 60.3125H21.9297L23.7344 66H23.0156L22.5664 64.5273ZM20.8633 63.8984H22.375L21.625 61.4297L20.8633 63.8984ZM24.7695 60H26.9297V65.375H28.3086V66H24.7695V65.375H26.207V60.6289H24.7695V60ZM29.5742 60H31.7344V65.375H33.1133V66H29.5742V65.375H31.0117V60.6289H29.5742V60ZM42.7539 64.2891C42.7201 64.5521 42.6523 64.7943 42.5508 65.0156C42.4492 65.2344 42.3164 65.4232 42.1523 65.582C41.9909 65.7383 41.7982 65.8607 41.5742 65.9492C41.3529 66.0352 41.1055 66.0781 40.832 66.0781C40.5977 66.0781 40.3841 66.0456 40.1914 65.9805C40.0013 65.9128 39.8307 65.8203 39.6797 65.7031C39.5312 65.5859 39.4023 65.4479 39.293 65.2891C39.1862 65.1302 39.0964 64.957 39.0234 64.7695C38.9531 64.582 38.8997 64.3854 38.8633 64.1797C38.8294 63.974 38.8112 63.7656 38.8086 63.5547V62.7617C38.8112 62.5508 38.8294 62.3424 38.8633 62.1367C38.8997 61.931 38.9531 61.7344 39.0234 61.5469C39.0964 61.3594 39.1862 61.1862 39.293 61.0273C39.4023 60.8659 39.5312 60.7266 39.6797 60.6094C39.8307 60.4922 40.0013 60.401 40.1914 60.3359C40.3815 60.2682 40.5951 60.2344 40.832 60.2344C41.1159 60.2344 41.3698 60.2786 41.5938 60.3672C41.8177 60.4531 42.0104 60.5768 42.1719 60.7383C42.3333 60.8971 42.4622 61.0885 42.5586 61.3125C42.6576 61.5365 42.7227 61.7839 42.7539 62.0547H42.0312C42.0078 61.8828 41.9674 61.7227 41.9102 61.5742C41.8529 61.4258 41.776 61.2956 41.6797 61.1836C41.5833 61.0716 41.4648 60.9844 41.3242 60.9219C41.1862 60.8568 41.0221 60.8242 40.832 60.8242C40.6602 60.8242 40.5078 60.8529 40.375 60.9102C40.2448 60.9648 40.1315 61.0404 40.0352 61.1367C39.9414 61.2331 39.862 61.3451 39.7969 61.4727C39.7344 61.6003 39.6836 61.7357 39.6445 61.8789C39.6055 62.0221 39.5768 62.1693 39.5586 62.3203C39.543 62.4688 39.5352 62.6133 39.5352 62.7539V63.5547C39.5352 63.6953 39.543 63.8411 39.5586 63.9922C39.5768 64.1406 39.6055 64.2878 39.6445 64.4336C39.6836 64.5768 39.7344 64.7122 39.7969 64.8398C39.8594 64.9674 39.9388 65.0807 40.0352 65.1797C40.1315 65.276 40.2448 65.3529 40.375 65.4102C40.5052 65.4648 40.6576 65.4922 40.832 65.4922C41.0221 65.4922 41.1862 65.4622 41.3242 65.4023C41.4648 65.3424 41.5833 65.2591 41.6797 65.1523C41.776 65.043 41.8529 64.9154 41.9102 64.7695C41.9674 64.6211 42.0078 64.4609 42.0312 64.2891H42.7539ZM44.5977 62.4023C44.7487 62.181 44.9349 62.0091 45.1562 61.8867C45.3776 61.7617 45.6263 61.6979 45.9023 61.6953C46.1237 61.6953 46.3242 61.7279 46.5039 61.793C46.6862 61.8555 46.8411 61.9544 46.9688 62.0898C47.0964 62.2253 47.194 62.3971 47.2617 62.6055C47.332 62.8112 47.3672 63.056 47.3672 63.3398V66H46.6445V63.332C46.6445 62.9857 46.5612 62.7279 46.3945 62.5586C46.2305 62.3893 45.9948 62.306 45.6875 62.3086C45.4557 62.3086 45.2448 62.3659 45.0547 62.4805C44.8672 62.5924 44.7148 62.7422 44.5977 62.9297V66H43.875V60H44.5977V62.4023ZM51.457 66C51.4284 65.9453 51.4049 65.8776 51.3867 65.7969C51.3711 65.7135 51.3594 65.6276 51.3516 65.5391C51.2786 65.612 51.1966 65.681 51.1055 65.7461C51.0169 65.8112 50.918 65.8685 50.8086 65.918C50.7018 65.9674 50.5872 66.0065 50.4648 66.0352C50.3424 66.0638 50.2122 66.0781 50.0742 66.0781C49.8503 66.0781 49.6471 66.0456 49.4648 65.9805C49.2852 65.9154 49.1315 65.8281 49.0039 65.7188C48.8789 65.6068 48.7812 65.4753 48.7109 65.3242C48.6432 65.1706 48.6094 65.0052 48.6094 64.8281C48.6094 64.5964 48.6549 64.3932 48.7461 64.2188C48.8398 64.0443 48.9714 63.8997 49.1406 63.7852C49.3099 63.668 49.513 63.5807 49.75 63.5234C49.9896 63.4661 50.2565 63.4375 50.5508 63.4375H51.3398V63.1055C51.3398 62.9779 51.3164 62.8633 51.2695 62.7617C51.2227 62.6602 51.1562 62.5742 51.0703 62.5039C50.9844 62.431 50.8789 62.375 50.7539 62.3359C50.6315 62.2969 50.4935 62.2773 50.3398 62.2773C50.1966 62.2773 50.0677 62.2956 49.9531 62.332C49.8411 62.3685 49.7461 62.4167 49.668 62.4766C49.5898 62.5365 49.5286 62.6081 49.4844 62.6914C49.4427 62.7721 49.4219 62.8568 49.4219 62.9453H48.6953C48.6979 62.7917 48.737 62.6406 48.8125 62.4922C48.8906 62.3438 49.0013 62.2109 49.1445 62.0938C49.2904 61.974 49.4661 61.8776 49.6719 61.8047C49.8802 61.7318 50.1159 61.6953 50.3789 61.6953C50.6185 61.6953 50.8411 61.7253 51.0469 61.7852C51.2526 61.8424 51.4297 61.931 51.5781 62.0508C51.7292 62.168 51.8477 62.3151 51.9336 62.4922C52.0195 62.6693 52.0625 62.8763 52.0625 63.1133V65.0781C52.0625 65.2188 52.0755 65.3685 52.1016 65.5273C52.1276 65.6836 52.1641 65.8203 52.2109 65.9375V66H51.457ZM50.1797 65.4492C50.3203 65.4492 50.4518 65.431 50.5742 65.3945C50.6966 65.3581 50.8073 65.3099 50.9062 65.25C51.0078 65.1901 51.0951 65.1224 51.168 65.0469C51.2409 64.9688 51.2982 64.888 51.3398 64.8047V63.9492H50.668C50.2461 63.9492 49.918 64.0117 49.6836 64.1367C49.4492 64.2617 49.332 64.4583 49.332 64.7266C49.332 64.8307 49.349 64.9271 49.3828 65.0156C49.4193 65.1042 49.4727 65.181 49.543 65.2461C49.6133 65.3086 49.7018 65.3581 49.8086 65.3945C49.9154 65.431 50.0391 65.4492 50.1797 65.4492ZM54.1328 61.7734L54.1836 62.3984C54.3372 62.1797 54.526 62.0091 54.75 61.8867C54.974 61.7617 55.224 61.6979 55.5 61.6953C55.7214 61.6953 55.9219 61.7266 56.1016 61.7891C56.2839 61.8516 56.4388 61.9492 56.5664 62.082C56.694 62.2148 56.7917 62.3841 56.8594 62.5898C56.9297 62.793 56.9648 63.0352 56.9648 63.3164V66H56.2422V63.332C56.2422 63.1445 56.2214 62.9857 56.1797 62.8555C56.138 62.7253 56.0755 62.6198 55.9922 62.5391C55.9115 62.4583 55.8112 62.3997 55.6914 62.3633C55.5742 62.3268 55.4388 62.3086 55.2852 62.3086C55.043 62.3086 54.8294 62.3698 54.6445 62.4922C54.4622 62.612 54.3164 62.7708 54.207 62.9688V66H53.4844V61.7734H54.1328ZM58.9375 61.7734L58.9883 62.3984C59.1419 62.1797 59.3307 62.0091 59.5547 61.8867C59.7786 61.7617 60.0286 61.6979 60.3047 61.6953C60.526 61.6953 60.7266 61.7266 60.9062 61.7891C61.0885 61.8516 61.2435 61.9492 61.3711 62.082C61.4987 62.2148 61.5964 62.3841 61.6641 62.5898C61.7344 62.793 61.7695 63.0352 61.7695 63.3164V66H61.0469V63.332C61.0469 63.1445 61.026 62.9857 60.9844 62.8555C60.9427 62.7253 60.8802 62.6198 60.7969 62.5391C60.7161 62.4583 60.6159 62.3997 60.4961 62.3633C60.3789 62.3268 60.2435 62.3086 60.0898 62.3086C59.8477 62.3086 59.6341 62.3698 59.4492 62.4922C59.2669 62.612 59.1211 62.7708 59.0117 62.9688V66H58.2891V61.7734H58.9375ZM64.9609 66.0781C64.6641 66.0781 64.3906 66.0273 64.1406 65.9258C63.8932 65.8242 63.681 65.6823 63.5039 65.5C63.3268 65.3177 63.1888 65.1016 63.0898 64.8516C62.9909 64.6016 62.9414 64.3294 62.9414 64.0352V63.8711C62.9414 63.5299 62.9961 63.2253 63.1055 62.957C63.2148 62.6862 63.3594 62.4583 63.5391 62.2734C63.7214 62.0859 63.9271 61.9427 64.1562 61.8438C64.388 61.7448 64.625 61.6953 64.8672 61.6953C65.1719 61.6953 65.4375 61.7487 65.6641 61.8555C65.8932 61.9596 66.0833 62.1055 66.2344 62.293C66.3854 62.4779 66.4974 62.6966 66.5703 62.9492C66.6458 63.2018 66.6836 63.4753 66.6836 63.7695V64.0938H63.6641C63.6719 64.2865 63.7083 64.4674 63.7734 64.6367C63.8411 64.806 63.9323 64.9544 64.0469 65.082C64.1641 65.207 64.3034 65.306 64.4648 65.3789C64.6263 65.4518 64.8047 65.4883 65 65.4883C65.2578 65.4883 65.487 65.4362 65.6875 65.332C65.888 65.2279 66.0547 65.0898 66.1875 64.918L66.6289 65.2617C66.5586 65.3685 66.4701 65.4714 66.3633 65.5703C66.2591 65.6667 66.138 65.7526 66 65.8281C65.862 65.9036 65.7057 65.9635 65.5312 66.0078C65.3568 66.0547 65.1667 66.0781 64.9609 66.0781ZM64.8672 62.2891C64.7214 62.2891 64.5833 62.3164 64.4531 62.3711C64.3229 62.4232 64.2057 62.5013 64.1016 62.6055C63.9974 62.707 63.9089 62.8333 63.8359 62.9844C63.7656 63.1328 63.7161 63.3047 63.6875 63.5H65.9609V63.4453C65.9531 63.3047 65.9258 63.1654 65.8789 63.0273C65.8346 62.8893 65.7682 62.7656 65.6797 62.6562C65.5911 62.5469 65.4792 62.4583 65.3438 62.3906C65.2109 62.3229 65.0521 62.2891 64.8672 62.2891ZM68.0117 60H70.1719V65.375H71.5508V66H68.0117V65.375H69.4492V60.6289H68.0117V60ZM75.5117 64.8789C75.5117 64.793 75.4948 64.7161 75.4609 64.6484C75.4271 64.5781 75.3698 64.5143 75.2891 64.457C75.2083 64.3997 75.1016 64.3477 74.9688 64.3008C74.8359 64.2513 74.6706 64.207 74.4727 64.168C74.2305 64.1185 74.0091 64.0586 73.8086 63.9883C73.6107 63.918 73.4401 63.8346 73.2969 63.7383C73.1562 63.6393 73.0469 63.5247 72.9688 63.3945C72.8906 63.2617 72.8516 63.1081 72.8516 62.9336C72.8516 62.7617 72.8919 62.6016 72.9727 62.4531C73.0534 62.3021 73.1667 62.1706 73.3125 62.0586C73.4583 61.9466 73.6315 61.8581 73.832 61.793C74.0352 61.7279 74.2578 61.6953 74.5 61.6953C74.7604 61.6953 74.9948 61.7292 75.2031 61.7969C75.4115 61.8646 75.5885 61.9583 75.7344 62.0781C75.8802 62.1979 75.9922 62.3385 76.0703 62.5C76.151 62.6589 76.1914 62.8307 76.1914 63.0156H75.4688C75.4688 62.9245 75.4453 62.8359 75.3984 62.75C75.3516 62.6615 75.2865 62.5833 75.2031 62.5156C75.1198 62.4479 75.0182 62.3932 74.8984 62.3516C74.7812 62.3099 74.6484 62.2891 74.5 62.2891C74.3464 62.2891 74.2109 62.306 74.0938 62.3398C73.9792 62.3737 73.8828 62.4193 73.8047 62.4766C73.7292 62.5339 73.6719 62.6003 73.6328 62.6758C73.5938 62.7513 73.5742 62.8294 73.5742 62.9102C73.5742 62.9935 73.5898 63.0677 73.6211 63.1328C73.6523 63.1979 73.7057 63.2565 73.7812 63.3086C73.8594 63.3607 73.9622 63.4076 74.0898 63.4492C74.2201 63.4909 74.3841 63.5312 74.582 63.5703C74.8424 63.625 75.0755 63.6888 75.2812 63.7617C75.487 63.832 75.6602 63.918 75.8008 64.0195C75.9414 64.1185 76.0482 64.2344 76.1211 64.3672C76.1966 64.5 76.2344 64.6536 76.2344 64.8281C76.2344 65.0156 76.1914 65.1862 76.1055 65.3398C76.0221 65.4935 75.9049 65.625 75.7539 65.7344C75.6029 65.8438 75.4219 65.9284 75.2109 65.9883C75 66.0482 74.7695 66.0781 74.5195 66.0781C74.2331 66.0781 73.9779 66.0404 73.7539 65.9648C73.5299 65.8867 73.3398 65.7852 73.1836 65.6602C73.0299 65.5326 72.9115 65.3854 72.8281 65.2188C72.7474 65.0521 72.707 64.8789 72.707 64.6992H73.4297C73.4401 64.8477 73.4792 64.9727 73.5469 65.0742C73.6172 65.1758 73.7031 65.2578 73.8047 65.3203C73.9089 65.3828 74.0234 65.4271 74.1484 65.4531C74.2734 65.4792 74.3971 65.4922 74.5195 65.4922C74.8242 65.4922 75.0651 65.4362 75.2422 65.3242C75.4193 65.2122 75.5091 65.0638 75.5117 64.8789Z" fill="#F8D457"/>
</svg>
