<svg width="97" height="54" viewBox="0 0 97 54" fill="none" xmlns="http://www.w3.org/2000/svg">
<rect width="97" height="54" rx="4" fill="#1B1B1B"/>
<path d="M41.9648 16V10.3125H43.6562C43.8906 10.3151 44.1198 10.3464 44.3438 10.4062C44.5677 10.4635 44.7669 10.5534 44.9414 10.6758C45.1159 10.7982 45.2552 10.9544 45.3594 11.1445C45.4635 11.3346 45.5143 11.5625 45.5117 11.8281C45.5091 11.9766 45.4844 12.112 45.4375 12.2344C45.3932 12.3568 45.3307 12.4674 45.25 12.5664C45.1719 12.6628 45.0794 12.7474 44.9727 12.8203C44.8659 12.8932 44.7526 12.9557 44.6328 13.0078C44.7839 13.0521 44.9219 13.1159 45.0469 13.1992C45.1745 13.2799 45.2839 13.3789 45.375 13.4961C45.4661 13.6107 45.5365 13.7409 45.5859 13.8867C45.638 14.0326 45.6641 14.1901 45.6641 14.3594C45.6667 14.625 45.6159 14.8594 45.5117 15.0625C45.4076 15.2656 45.2682 15.4362 45.0938 15.5742C44.9193 15.7096 44.7174 15.8138 44.4883 15.8867C44.2617 15.9596 44.0273 15.9974 43.7852 16H41.9648ZM42.6914 13.3398V15.3867H43.8047C43.9557 15.3841 44.099 15.3594 44.2344 15.3125C44.3698 15.263 44.4896 15.1953 44.5938 15.1094C44.6979 15.0234 44.7799 14.918 44.8398 14.793C44.9023 14.668 44.9336 14.526 44.9336 14.3672C44.9362 14.2057 44.9089 14.0625 44.8516 13.9375C44.7969 13.8125 44.7201 13.707 44.6211 13.6211C44.5221 13.5326 44.4062 13.4648 44.2734 13.418C44.1406 13.3711 43.9974 13.3451 43.8438 13.3398H42.6914ZM42.6914 12.7383H43.6992C43.8346 12.7357 43.9674 12.7148 44.0977 12.6758C44.2279 12.6341 44.3438 12.5755 44.4453 12.5C44.5469 12.4219 44.6289 12.3268 44.6914 12.2148C44.7539 12.1029 44.7852 11.9727 44.7852 11.8242C44.7852 11.6654 44.7539 11.5299 44.6914 11.418C44.6315 11.306 44.5495 11.2148 44.4453 11.1445C44.3438 11.0716 44.2253 11.0182 44.0898 10.9844C43.957 10.9505 43.8203 10.9323 43.6797 10.9297H42.6914V12.7383ZM47.5664 13.7188V16H46.8438V10.3125H48.6875C48.9427 10.3177 49.1836 10.3581 49.4102 10.4336C49.6393 10.5091 49.8398 10.6185 50.0117 10.7617C50.1836 10.9049 50.319 11.082 50.418 11.293C50.5195 11.5039 50.5703 11.7461 50.5703 12.0195C50.5703 12.293 50.5195 12.5352 50.418 12.7461C50.319 12.9544 50.1836 13.1302 50.0117 13.2734C49.8398 13.4167 49.6393 13.526 49.4102 13.6016C49.1836 13.6771 48.9427 13.7161 48.6875 13.7188H47.5664ZM47.5664 13.125H48.6875C48.8542 13.1224 49.0078 13.0964 49.1484 13.0469C49.2891 12.9948 49.4115 12.9219 49.5156 12.8281C49.6198 12.7344 49.7005 12.6211 49.7578 12.4883C49.8177 12.3529 49.8477 12.1992 49.8477 12.0273C49.8477 11.8555 49.8177 11.7005 49.7578 11.5625C49.7005 11.4245 49.6198 11.3073 49.5156 11.2109C49.4141 11.1146 49.2917 11.0404 49.1484 10.9883C49.0078 10.9362 48.8542 10.9089 48.6875 10.9062H47.5664V13.125ZM52.375 10.3125L53.3008 13.1562L54.3008 10.3125H55.1992V16H54.4961V13.7305L54.5547 11.3555L53.5039 14.418H53.0898L52.125 11.4375L52.1836 13.7305V16H51.4805V10.3125H52.375Z" fill="#F8D457"/>
<path d="M38.041 41H36.2344V29.0859L32.5137 30.502V28.8516L37.8945 26.7812H38.041V41ZM50.0527 41H48.2461V29.0859L44.5254 30.502V28.8516L49.9062 26.7812H50.0527V41ZM65.1309 35.5605C65.1309 36.4655 65.0267 37.2695 64.8184 37.9727C64.61 38.6693 64.3105 39.2585 63.9199 39.7402C63.5293 40.2155 63.0508 40.5768 62.4844 40.8242C61.918 41.0716 61.2702 41.1953 60.541 41.1953C59.8184 41.1953 59.1706 41.0716 58.5977 40.8242C58.0312 40.5768 57.5495 40.2155 57.1523 39.7402C56.7552 39.2585 56.4492 38.6693 56.2344 37.9727C56.026 37.2695 55.9219 36.4655 55.9219 35.5605V32.2305C55.9219 31.3255 56.026 30.5247 56.2344 29.8281C56.4427 29.125 56.7422 28.5326 57.1328 28.0508C57.5299 27.569 58.0117 27.2044 58.5781 26.957C59.151 26.7031 59.7988 26.5762 60.5215 26.5762C61.2507 26.5762 61.8984 26.7031 62.4648 26.957C63.0378 27.2044 63.5195 27.569 63.9102 28.0508C64.3073 28.5326 64.61 29.125 64.8184 29.8281C65.0267 30.5247 65.1309 31.3255 65.1309 32.2305V35.5605ZM57.7383 35.1992L63.2754 30.9512C63.1712 30.0072 62.8945 29.291 62.4453 28.8027C62.0026 28.3079 61.3613 28.0605 60.5215 28.0605C59.571 28.0605 58.8678 28.3828 58.4121 29.0273C57.9629 29.6654 57.7383 30.5996 57.7383 31.8301V35.1992ZM63.3145 32.6797L57.7871 36.9082C57.8978 37.8262 58.181 38.526 58.6367 39.0078C59.0924 39.4896 59.7272 39.7305 60.541 39.7305C61.498 39.7305 62.1979 39.4049 62.6406 38.7539C63.0898 38.1029 63.3145 37.1654 63.3145 35.9414V32.6797Z" fill="#F8D457"/>
</svg>
