<svg width="34" height="110" viewBox="0 0 34 110" fill="none" xmlns="http://www.w3.org/2000/svg">
<rect width="13.4694" height="5" fill="#DF5353"/>
<rect y="7" width="13.4694" height="5" fill="#E08C29"/>
<rect y="14" width="13.4694" height="5" fill="#F8D457"/>
<rect y="21" width="13.4694" height="5" fill="#F8D457"/>
<rect y="28" width="13.4694" height="5" fill="#D8E876"/>
<rect y="35" width="13.4694" height="5" fill="#A7D36F"/>
<rect y="42" width="13.4694" height="5" fill="#A0C96B"/>
<rect y="49" width="13.4694" height="5" fill="#A0C96B"/>
<rect y="56" width="13.4694" height="5" fill="#A0C96B"/>
<rect y="63" width="13.4694" height="5" fill="#A0C96B"/>
<rect y="70" width="13.4694" height="5" fill="#91B661"/>
<rect y="77" width="13.4694" height="5" fill="#91B661"/>
<rect y="84" width="13.4694" height="5" fill="#7DA44C"/>
<rect y="91" width="13.4694" height="5" fill="#7DA44C"/>
<rect y="98" width="13.4694" height="5" fill="#7DA44C"/>
<rect y="105" width="13.4694" height="5" fill="#6A8D3D"/>
<rect x="20" y="21" width="13.4694" height="5" fill="#F8D457"/>
<rect x="20" y="28" width="13.4694" height="5" fill="#D8E876"/>
<rect x="20" y="35" width="13.4694" height="5" fill="#A7D36F"/>
<rect x="20" y="42" width="13.4694" height="5" fill="#A0C96B"/>
<rect x="20" y="49" width="13.4694" height="5" fill="#A0C96B"/>
<rect x="20" y="56" width="13.4694" height="5" fill="#A0C96B"/>
<rect x="20" y="63" width="13.4694" height="5" fill="#A0C96B"/>
<rect x="20" y="70" width="13.4694" height="5" fill="#91B661"/>
<rect x="20" y="77" width="13.4694" height="5" fill="#91B661"/>
<rect x="20" y="84" width="13.4694" height="5" fill="#7DA44C"/>
<rect x="20" y="91" width="13.4694" height="5" fill="#7DA44C"/>
<rect x="20" y="98" width="13.4694" height="5" fill="#7DA44C"/>
<rect x="20" y="105" width="13.4694" height="5" fill="#6A8D3D"/>
<rect x="19.5306" width="13.4694" height="5" fill="#DCDCDC"/>
<rect x="19.5306" y="7" width="13.4694" height="5" fill="#DCDCDC"/>
<rect x="19.5306" y="14" width="13.4694" height="5" fill="#DCDCDC"/>
</svg>
