<svg width="42" height="54" viewBox="0 0 42 54" fill="none" xmlns="http://www.w3.org/2000/svg">
<path d="M16.3884 18.4843L25.3203 18.4083C26.3148 18.3999 27.2719 18.7869 27.9811 19.4841L34.3506 25.7462C35.0598 26.4435 35.463 27.3939 35.4714 28.3884L35.5474 37.3203C35.5558 38.3148 35.1688 39.2719 34.4716 39.9811L28.2095 46.3506C27.5122 47.0598 26.5618 47.463 25.5673 47.4714L16.6354 47.5474C15.6409 47.5558 14.6838 47.1688 13.9746 46.4716L7.60511 40.2095C6.8959 39.5122 6.49272 38.5618 6.48426 37.5673L6.40834 28.6354C6.39989 27.6409 6.78686 26.6838 7.48412 25.9746L13.7462 19.6051C14.4435 18.8959 15.3939 18.4927 16.3884 18.4843Z" fill="#F3F3F3" stroke="#9D9D9D" stroke-width="0.5"/>
<g style="mix-blend-mode:hard-light">
<circle cx="21" cy="33.4967" r="11" fill="#4F4F4F" fill-opacity="0.95"/>
</g>
<circle cx="21" cy="33.4967" r="8" fill="black"/>
<rect x="17" y="9" width="7" height="27" rx="3.5" fill="#E2E2E2"/>
<path d="M13.7083 8.21611C13.5728 7.62466 13.5371 7.04837 13.6648 6.509C13.893 5.54523 14.3962 4.03108 15.446 2.76649C16.4807 1.52002 18.0569 0.5 20.5 0.5C22.9431 0.5 24.5193 1.52002 25.554 2.76648C26.6038 4.03107 27.107 5.54523 27.3352 6.509C27.4629 7.04837 27.4272 7.62466 27.2917 8.21611L23.6828 23.9641C23.3427 25.448 22.0224 26.5 20.5 26.5C18.9776 26.5 17.6573 25.448 17.3172 23.9641L13.7083 8.21611Z" fill="url(#paint0_linear)" stroke="#D9C26F"/>
<defs>
<linearGradient id="paint0_linear" x1="20.5" y1="0" x2="20.5" y2="27" gradientUnits="userSpaceOnUse">
<stop offset="0.1875" stop-color="#FEE373"/>
<stop offset="1" stop-color="#D9BF53"/>
</linearGradient>
</defs>
</svg>
