<svg width="42" height="42" viewBox="0 0 42 42" fill="none" xmlns="http://www.w3.org/2000/svg">
<path d="M13.7462 7.60511C14.4435 6.89589 15.3939 6.49271 16.3884 6.48426L25.3203 6.40834C26.3148 6.39989 27.2719 6.78685 27.9811 7.48411L34.3506 13.7462C35.0598 14.4435 35.463 15.3939 35.4714 16.3884L35.5474 25.3203C35.5558 26.3148 35.1688 27.2719 34.4716 27.9811L28.2095 34.3506C27.5122 35.0598 26.5618 35.463 25.5673 35.4714L16.6354 35.5474C15.6409 35.5558 14.6838 35.1688 13.9746 34.4716L7.60511 28.2095C6.8959 27.5122 6.49272 26.5618 6.48426 25.5673L6.40834 16.6354C6.39989 15.6409 6.78686 14.6838 7.48412 13.9746L13.7462 7.60511Z" fill="#F3F3F3" stroke="#9D9D9D" stroke-width="0.5"/>
<g style="mix-blend-mode:hard-light">
<circle cx="21" cy="21.4967" r="11" fill="#4F4F4F" fill-opacity="0.95"/>
</g>
<circle cx="21" cy="21.4967" r="8" fill="black"/>
<circle cx="21" cy="22" r="8" fill="black"/>
<circle cx="21" cy="22" r="7.5" fill="#FEE373" stroke="#D9C26F"/>
</svg>
