<svg width="46" height="46" viewBox="0 0 46 46" fill="none" xmlns="http://www.w3.org/2000/svg">
<g filter="url(#filter0_d)">
<path d="M15.5679 8.42984C16.3117 7.67334 17.3255 7.24328 18.3863 7.23427L27.3181 7.15835C28.379 7.14933 29.3999 7.5621 30.1564 8.30584L36.5259 14.5679C37.2824 15.3117 37.7124 16.3255 37.7214 17.3863L37.7973 26.3181C37.8064 27.379 37.3936 28.3999 36.6499 29.1564L30.3878 35.5259C29.644 36.2823 28.6302 36.7124 27.5694 36.7214L18.6376 36.7973C17.5767 36.8064 16.5558 36.3936 15.7993 35.6499L9.42984 29.3878C8.67335 28.644 8.24329 27.6302 8.23427 26.5694L8.15835 17.6376C8.14934 16.5767 8.5621 15.5558 9.30584 14.7993L15.5679 8.42984Z" fill="#F3F3F3"/>
<path d="M15.7462 8.60511C16.4435 7.89589 17.3939 7.49271 18.3884 7.48426L27.3203 7.40834C28.3148 7.39989 29.2719 7.78685 29.9811 8.48411L36.3506 14.7462C37.0598 15.4435 37.463 16.3939 37.4714 17.3884L37.5474 26.3203C37.5558 27.3148 37.1688 28.2719 36.4716 28.9811L30.2095 35.3506C29.5122 36.0598 28.5618 36.463 27.5673 36.4714L18.6354 36.5474C17.6409 36.5558 16.6838 36.1688 15.9746 35.4716L9.60511 29.2095C8.8959 28.5122 8.49272 27.5618 8.48426 26.5673L8.40834 17.6354C8.39989 16.6409 8.78686 15.6838 9.48412 14.9746L15.7462 8.60511Z" stroke="#9D9D9D" stroke-width="0.5"/>
</g>
<g style="mix-blend-mode:hard-light">
<circle cx="23" cy="22.4967" r="11" fill="#4F4F4F" fill-opacity="0.95"/>
</g>
<circle cx="23" cy="22.4967" r="8" fill="black"/>
<circle cx="23" cy="23" r="8" fill="black"/>
<circle cx="23" cy="23" r="7.5" fill="#FEE373" stroke="#D9C26F"/>
<defs>
<filter id="filter0_d" x="0.432098" y="0.432098" width="45.0915" height="45.0915" filterUnits="userSpaceOnUse" color-interpolation-filters="sRGB">
<feFlood flood-opacity="0" result="BackgroundImageFix"/>
<feColorMatrix in="SourceAlpha" type="matrix" values="0 0 0 0 0 0 0 0 0 0 0 0 0 0 0 0 0 0 127 0"/>
<feOffset dy="1"/>
<feGaussianBlur stdDeviation="1"/>
<feColorMatrix type="matrix" values="0 0 0 0 0 0 0 0 0 0 0 0 0 0 0 0 0 0 0.1 0"/>
<feBlend mode="normal" in2="BackgroundImageFix" result="effect1_dropShadow"/>
<feBlend mode="normal" in="SourceGraphic" in2="effect1_dropShadow" result="shape"/>
</filter>
</defs>
</svg>
