<svg width="164" height="35" viewBox="0 0 164 35" fill="none" xmlns="http://www.w3.org/2000/svg">
<rect width="164" height="35" rx="2" fill="#2D2D2D"/>
<rect x="1" y="1" width="49" height="33" rx="2" fill="#F5F5F5"/>
<path d="M21.1562 21V13.8613H22.3232V19.999H25.3457V21H21.1562ZM31.3027 16.0195C31.3027 16.765 31.0586 17.3363 30.5703 17.7334C30.082 18.1305 29.387 18.3291 28.4854 18.3291H27.7432V21H26.5762V13.8613H28.6318C29.5238 13.8613 30.1911 14.0436 30.6338 14.4082C31.0798 14.7728 31.3027 15.3099 31.3027 16.0195ZM27.7432 17.3477H28.3633C28.9622 17.3477 29.4017 17.2435 29.6816 17.0352C29.9616 16.8268 30.1016 16.5013 30.1016 16.0586C30.1016 15.6484 29.9762 15.3424 29.7256 15.1406C29.4749 14.9388 29.0843 14.8379 28.5537 14.8379H27.7432V17.3477Z" fill="black"/>
<path d="M79.7412 21H78.5693V17.7822H75.2783V21H74.1113V13.8613H75.2783V16.7812H78.5693V13.8613H79.7412V21ZM86.3477 16.0195C86.3477 16.765 86.1035 17.3363 85.6152 17.7334C85.127 18.1305 84.432 18.3291 83.5303 18.3291H82.7881V21H81.6211V13.8613H83.6768C84.5687 13.8613 85.236 14.0436 85.6787 14.4082C86.1247 14.7728 86.3477 15.3099 86.3477 16.0195ZM82.7881 17.3477H83.4082C84.0072 17.3477 84.4466 17.2435 84.7266 17.0352C85.0065 16.8268 85.1465 16.5013 85.1465 16.0586C85.1465 15.6484 85.0212 15.3424 84.7705 15.1406C84.5199 14.9388 84.1292 14.8379 83.5986 14.8379H82.7881V17.3477Z" fill="white"/>
<path d="M129.065 13.8613H131.185C132.168 13.8613 132.877 14.0046 133.313 14.291C133.753 14.5775 133.973 15.0299 133.973 15.6484C133.973 16.0651 133.865 16.4118 133.65 16.6885C133.436 16.9652 133.126 17.1393 132.723 17.2109V17.2598C133.224 17.3542 133.592 17.5413 133.826 17.8213C134.064 18.098 134.183 18.474 134.183 18.9492C134.183 19.5905 133.958 20.0934 133.509 20.458C133.063 20.8193 132.441 21 131.644 21H129.065V13.8613ZM130.232 16.8105H131.355C131.844 16.8105 132.2 16.734 132.425 16.5811C132.649 16.4248 132.762 16.1611 132.762 15.79C132.762 15.4548 132.64 15.2122 132.396 15.0625C132.155 14.9128 131.771 14.8379 131.243 14.8379H130.232V16.8105ZM130.232 17.7578V20.0186H131.473C131.961 20.0186 132.329 19.9258 132.576 19.7402C132.827 19.5514 132.952 19.2552 132.952 18.8516C132.952 18.4805 132.825 18.2054 132.571 18.0264C132.317 17.8473 131.932 17.7578 131.414 17.7578H130.232ZM140.394 16.0195C140.394 16.765 140.149 17.3363 139.661 17.7334C139.173 18.1305 138.478 18.3291 137.576 18.3291H136.834V21H135.667V13.8613H137.723C138.615 13.8613 139.282 14.0436 139.725 14.4082C140.171 14.7728 140.394 15.3099 140.394 16.0195ZM136.834 17.3477H137.454C138.053 17.3477 138.493 17.2435 138.772 17.0352C139.052 16.8268 139.192 16.5013 139.192 16.0586C139.192 15.6484 139.067 15.3424 138.816 15.1406C138.566 14.9388 138.175 14.8379 137.645 14.8379H136.834V17.3477Z" fill="white"/>
</svg>
