<svg width="49" height="33" viewBox="0 0 49 33" fill="none" xmlns="http://www.w3.org/2000/svg">
<rect x="0.5" y="0.5" width="48" height="32" rx="1.5" fill="#F5F5F5" stroke="black"/>
<path d="M24.4287 16.4209C24.4287 17.583 24.1374 18.4863 23.5547 19.1309C22.9753 19.7754 22.1533 20.0977 21.0889 20.0977C20.0114 20.0977 19.1829 19.7786 18.6035 19.1406C18.0273 18.4993 17.7393 17.5895 17.7393 16.4111C17.7393 15.2327 18.029 14.3278 18.6084 13.6963C19.1911 13.0648 20.0212 12.749 21.0986 12.749C22.1598 12.749 22.9801 13.0697 23.5596 13.7109C24.139 14.3522 24.4287 15.2555 24.4287 16.4209ZM18.9795 16.4209C18.9795 17.2998 19.1569 17.9671 19.5117 18.4229C19.8665 18.8753 20.3923 19.1016 21.0889 19.1016C21.7822 19.1016 22.3047 18.877 22.6562 18.4277C23.0111 17.9785 23.1885 17.3096 23.1885 16.4209C23.1885 15.5452 23.0127 14.8812 22.6611 14.4287C22.3128 13.9762 21.792 13.75 21.0986 13.75C20.3988 13.75 19.8698 13.9762 19.5117 14.4287C19.1569 14.8812 18.9795 15.5452 18.9795 16.4209ZM31.9092 20H30.4785L26.9678 14.3115H26.9287L26.9531 14.6289C26.9987 15.2344 27.0215 15.7878 27.0215 16.2891V20H25.9619V12.8613H27.3779L30.8789 18.5205H30.9082C30.9017 18.4456 30.8887 18.1738 30.8691 17.7051C30.8496 17.2331 30.8398 16.8652 30.8398 16.6016V12.8613H31.9092V20Z" fill="black"/>
</svg>
