<svg width="49" height="33" viewBox="0 0 49 33" fill="none" xmlns="http://www.w3.org/2000/svg">
<rect x="0.5" y="0.5" width="48" height="32" rx="1.5" fill="#2D2D2D" stroke="black"/>
<path d="M22.5225 17.4209C22.5225 18.583 22.2311 19.4863 21.6484 20.1309C21.069 20.7754 20.2471 21.0977 19.1826 21.0977C18.1051 21.0977 17.2767 20.7786 16.6973 20.1406C16.1211 19.4993 15.833 18.5895 15.833 17.4111C15.833 16.2327 16.1227 15.3278 16.7021 14.6963C17.2848 14.0648 18.1149 13.749 19.1924 13.749C20.2536 13.749 21.0739 14.0697 21.6533 14.7109C22.2327 15.3522 22.5225 16.2555 22.5225 17.4209ZM17.0732 17.4209C17.0732 18.2998 17.2507 18.9671 17.6055 19.4229C17.9603 19.8753 18.486 20.1016 19.1826 20.1016C19.876 20.1016 20.3984 19.877 20.75 19.4277C21.1048 18.9785 21.2822 18.3096 21.2822 17.4209C21.2822 16.5452 21.1064 15.8812 20.7549 15.4287C20.4066 14.9762 19.8857 14.75 19.1924 14.75C18.4925 14.75 17.9635 14.9762 17.6055 15.4287C17.2507 15.8812 17.0732 16.5452 17.0732 17.4209ZM25.2129 21H24.0557V13.8613H28.084V14.8477H25.2129V17.0791H27.9033V18.0703H25.2129V21ZM30.5352 21H29.3779V13.8613H33.4062V14.8477H30.5352V17.0791H33.2256V18.0703H30.5352V21Z" fill="white"/>
<path d="M21.6484 20.1309L20.9066 19.4602L20.9048 19.4623L21.6484 20.1309ZM16.6973 20.1406L15.9534 20.809L15.957 20.8129L16.6973 20.1406ZM16.7021 14.6963L15.9672 14.0182L15.9653 14.0202L16.7021 14.6963ZM17.6055 19.4229L16.8164 20.0372L16.8186 20.0399L17.6055 19.4229ZM20.75 19.4277L19.9653 18.8079L19.9625 18.8114L20.75 19.4277ZM20.7549 15.4287L19.9625 16.0387L19.9652 16.0423L20.7549 15.4287ZM17.6055 15.4287L16.8213 14.8081L16.8186 14.8116L17.6055 15.4287ZM21.5225 17.4209C21.5225 18.4202 21.2738 19.0541 20.9066 19.4602L22.3902 20.8015C23.1885 19.9185 23.5225 18.7458 23.5225 17.4209H21.5225ZM20.9048 19.4623C20.5572 19.8489 20.0334 20.0977 19.1826 20.0977V22.0977C20.4608 22.0977 21.5808 21.7019 22.3921 20.7994L20.9048 19.4623ZM19.1826 20.0977C18.3114 20.0977 17.7819 19.8475 17.4375 19.4683L15.957 20.8129C16.7715 21.7098 17.8989 22.0977 19.1826 22.0977V20.0977ZM17.4411 19.4723C17.0821 19.0727 16.833 18.434 16.833 17.4111H14.833C14.833 18.745 15.1601 19.926 15.9534 20.809L17.4411 19.4723ZM16.833 17.4111C16.833 16.3884 17.0835 15.7598 17.439 15.3724L15.9653 14.0202C15.162 14.8958 14.833 16.0771 14.833 17.4111H16.833ZM17.4371 15.3744C17.7846 14.9978 18.3183 14.749 19.1924 14.749V12.749C17.9115 12.749 16.7851 13.1317 15.9672 14.0182L17.4371 15.3744ZM19.1924 14.749C20.0404 14.749 20.5636 14.9965 20.9113 15.3814L22.3953 14.0405C21.5842 13.1428 20.4668 12.749 19.1924 12.749V14.749ZM20.9113 15.3814C21.2741 15.7829 21.5225 16.4158 21.5225 17.4209H23.5225C23.5225 16.0953 23.1914 14.9215 22.3953 14.0405L20.9113 15.3814ZM16.0732 17.4209C16.0732 18.4121 16.2699 19.3352 16.8164 20.0372L18.3945 18.8085C18.2314 18.5991 18.0732 18.1875 18.0732 17.4209H16.0732ZM16.8186 20.0399C17.4034 20.7858 18.251 21.1016 19.1826 21.1016V19.1016C18.721 19.1016 18.5171 18.9649 18.3924 18.8058L16.8186 20.0399ZM19.1826 21.1016C20.1099 21.1016 20.9552 20.7881 21.5375 20.044L19.9625 18.8114C19.8416 18.9659 19.6421 19.1016 19.1826 19.1016V21.1016ZM21.5347 20.0476C22.0875 19.3478 22.2822 18.4173 22.2822 17.4209H20.2822C20.2822 18.2019 20.1222 18.6093 19.9653 18.8079L21.5347 20.0476ZM22.2822 17.4209C22.2822 16.4342 22.0878 15.5143 21.5445 14.8152L19.9652 16.0423C20.1251 16.248 20.2822 16.6563 20.2822 17.4209H22.2822ZM21.5473 14.8187C20.9686 14.067 20.122 13.75 19.1924 13.75V15.75C19.6495 15.75 19.8445 15.8855 19.9625 16.0387L21.5473 14.8187ZM19.1924 13.75C18.2591 13.75 17.4097 14.0646 16.8213 14.8082L18.3896 16.0493C18.5173 15.8879 18.726 15.75 19.1924 15.75V13.75ZM16.8186 14.8116C16.27 15.5112 16.0732 16.4326 16.0732 17.4209H18.0732C18.0732 16.6579 18.2313 16.2512 18.3924 16.0458L16.8186 14.8116ZM25.2129 21V22H26.2129V21H25.2129ZM24.0557 21H23.0557V22H24.0557V21ZM24.0557 13.8613V12.8613H23.0557V13.8613H24.0557ZM28.084 13.8613H29.084V12.8613H28.084V13.8613ZM28.084 14.8477V15.8477H29.084V14.8477H28.084ZM25.2129 14.8477V13.8477H24.2129V14.8477H25.2129ZM25.2129 17.0791H24.2129V18.0791H25.2129V17.0791ZM27.9033 17.0791H28.9033V16.0791H27.9033V17.0791ZM27.9033 18.0703V19.0703H28.9033V18.0703H27.9033ZM25.2129 18.0703V17.0703H24.2129V18.0703H25.2129ZM25.2129 20H24.0557V22H25.2129V20ZM25.0557 21V13.8613H23.0557V21H25.0557ZM24.0557 14.8613H28.084V12.8613H24.0557V14.8613ZM27.084 13.8613V14.8477H29.084V13.8613H27.084ZM28.084 13.8477H25.2129V15.8477H28.084V13.8477ZM24.2129 14.8477V17.0791H26.2129V14.8477H24.2129ZM25.2129 18.0791H27.9033V16.0791H25.2129V18.0791ZM26.9033 17.0791V18.0703H28.9033V17.0791H26.9033ZM27.9033 17.0703H25.2129V19.0703H27.9033V17.0703ZM24.2129 18.0703V21H26.2129V18.0703H24.2129ZM30.5352 21V22H31.5352V21H30.5352ZM29.3779 21H28.3779V22H29.3779V21ZM29.3779 13.8613V12.8613H28.3779V13.8613H29.3779ZM33.4062 13.8613H34.4062V12.8613H33.4062V13.8613ZM33.4062 14.8477V15.8477H34.4062V14.8477H33.4062ZM30.5352 14.8477V13.8477H29.5352V14.8477H30.5352ZM30.5352 17.0791H29.5352V18.0791H30.5352V17.0791ZM33.2256 17.0791H34.2256V16.0791H33.2256V17.0791ZM33.2256 18.0703V19.0703H34.2256V18.0703H33.2256ZM30.5352 18.0703V17.0703H29.5352V18.0703H30.5352ZM30.5352 20H29.3779V22H30.5352V20ZM30.3779 21V13.8613H28.3779V21H30.3779ZM29.3779 14.8613H33.4062V12.8613H29.3779V14.8613ZM32.4062 13.8613V14.8477H34.4062V13.8613H32.4062ZM33.4062 13.8477H30.5352V15.8477H33.4062V13.8477ZM29.5352 14.8477V17.0791H31.5352V14.8477H29.5352ZM30.5352 18.0791H33.2256V16.0791H30.5352V18.0791ZM32.2256 17.0791V18.0703H34.2256V17.0791H32.2256ZM33.2256 17.0703H30.5352V19.0703H33.2256V17.0703ZM29.5352 18.0703V21H31.5352V18.0703H29.5352Z" fill="#2D2D2D"/>
</svg>
