<svg width="107" height="107" viewBox="0 0 107 107" fill="none" xmlns="http://www.w3.org/2000/svg">
<mask id="path-1-inside-1" fill="white">
<path d="M79.5495 80.0165C84.794 74.772 88.3655 68.0902 89.8125 60.8159C91.2594 53.5416 90.5168 46.0016 87.6785 39.1494C84.8402 32.2971 80.0337 26.4404 73.8669 22.3199C67.7001 18.1993 60.4498 16 53.033 16C45.6162 16 38.366 18.1993 32.1991 22.3199C26.0323 26.4404 21.2258 32.2971 18.3875 39.1494C15.5493 46.0016 14.8066 53.5416 16.2536 60.8159C17.7005 68.0902 21.272 74.772 26.5165 80.0165L27.285 79.248C22.1926 74.1555 18.7246 67.6673 17.3196 60.6038C15.9145 53.5404 16.6356 46.2189 19.3917 39.5653C22.1477 32.9117 26.8149 27.2247 32.803 23.2236C38.7911 19.2224 45.8312 17.0869 53.033 17.0869C60.2349 17.0869 67.275 19.2224 73.2631 23.2236C79.2512 27.2247 83.9183 32.9117 86.6744 39.5653C89.4304 46.2189 90.1515 53.5404 88.7465 60.6038C87.3415 67.6673 83.8735 74.1555 78.781 79.248L79.5495 80.0165Z"/>
</mask>
<path d="M79.5495 80.0165C84.794 74.772 88.3655 68.0902 89.8125 60.8159C91.2594 53.5416 90.5168 46.0016 87.6785 39.1494C84.8402 32.2971 80.0337 26.4404 73.8669 22.3199C67.7001 18.1993 60.4498 16 53.033 16C45.6162 16 38.366 18.1993 32.1991 22.3199C26.0323 26.4404 21.2258 32.2971 18.3875 39.1494C15.5493 46.0016 14.8066 53.5416 16.2536 60.8159C17.7005 68.0902 21.272 74.772 26.5165 80.0165L27.285 79.248C22.1926 74.1555 18.7246 67.6673 17.3196 60.6038C15.9145 53.5404 16.6356 46.2189 19.3917 39.5653C22.1477 32.9117 26.8149 27.2247 32.803 23.2236C38.7911 19.2224 45.8312 17.0869 53.033 17.0869C60.2349 17.0869 67.275 19.2224 73.2631 23.2236C79.2512 27.2247 83.9183 32.9117 86.6744 39.5653C89.4304 46.2189 90.1515 53.5404 88.7465 60.6038C87.3415 67.6673 83.8735 74.1555 78.781 79.248L79.5495 80.0165Z" stroke="url(#paint0_linear)" stroke-width="2" mask="url(#path-1-inside-1)"/>
<path d="M46.5 29.7417C50.7582 28.6007 55.2418 28.6007 59.5 29.7417C63.7582 30.8827 67.6411 33.1244 70.7583 36.2417C73.8756 39.3589 76.1173 43.2418 77.2583 47.5C78.3993 51.7582 78.3993 56.2418 77.2583 60.5C76.1173 64.7582 73.8756 68.6411 70.7583 71.7583C67.6411 74.8756 63.7582 77.1173 59.5 78.2583C55.2418 79.3993 50.7582 79.3993 46.5 78.2583C42.2418 77.1173 38.3589 74.8756 35.2417 71.7583C32.1244 68.6411 29.8827 64.7582 28.7417 60.5C27.6007 56.2418 27.6007 51.7582 28.7417 47.5C29.8827 43.2418 32.1244 39.3589 35.2417 36.2417C38.3589 33.1244 42.2418 30.8827 46.5 29.7417Z" fill="url(#paint1_linear)"/>
<rect x="51" y="29" width="4" height="24" rx="2" fill="white"/>
<defs>
<linearGradient id="paint0_linear" x1="90.033" y1="73" x2="21.533" y2="76.5" gradientUnits="userSpaceOnUse">
<stop offset="0.0480141" stop-color="#595959"/>
<stop offset="1" stop-color="#D5D5D5"/>
</linearGradient>
<linearGradient id="paint1_linear" x1="53" y1="28" x2="53" y2="80" gradientUnits="userSpaceOnUse">
<stop stop-color="#262626"/>
<stop offset="1" stop-color="#030303"/>
</linearGradient>
</defs>
</svg>
