<svg width="110" height="111" viewBox="0 0 110 111" fill="none" xmlns="http://www.w3.org/2000/svg">
<mask id="path-1-inside-1" fill="white">
<path d="M82.5 83C87.939 77.561 91.643 70.6313 93.1436 63.0872C94.6442 55.5431 93.874 47.7235 90.9305 40.6171C87.9869 33.5107 83.0022 27.4368 76.6066 23.1634C70.211 18.89 62.6919 16.6091 55 16.6091C47.3081 16.6091 39.789 18.89 33.3934 23.1634C26.9978 27.4368 22.0131 33.5107 19.0695 40.6171C16.126 47.7235 15.3558 55.5431 16.8564 63.0872C18.357 70.6313 22.061 77.561 27.5 83L28.297 82.2029C23.0157 76.9216 19.4191 70.1928 17.9619 62.8673C16.5048 55.5419 17.2527 47.9489 20.1109 41.0485C22.9692 34.148 27.8094 28.2502 34.0196 24.1006C40.2298 19.9511 47.531 17.7363 55 17.7363C62.469 17.7363 69.7702 19.9511 75.9804 24.1006C82.1906 28.2502 87.0308 34.148 89.8891 41.0485C92.7473 47.9489 93.4952 55.5419 92.0381 62.8673C90.5809 70.1928 86.9843 76.9216 81.703 82.2029L82.5 83Z"/>
</mask>
<path d="M82.5 83C87.939 77.561 91.643 70.6313 93.1436 63.0872C94.6442 55.5431 93.874 47.7235 90.9305 40.6171C87.9869 33.5107 83.0022 27.4368 76.6066 23.1634C70.211 18.89 62.6919 16.6091 55 16.6091C47.3081 16.6091 39.789 18.89 33.3934 23.1634C26.9978 27.4368 22.0131 33.5107 19.0695 40.6171C16.126 47.7235 15.3558 55.5431 16.8564 63.0872C18.357 70.6313 22.061 77.561 27.5 83L28.297 82.2029C23.0157 76.9216 19.4191 70.1928 17.9619 62.8673C16.5048 55.5419 17.2527 47.9489 20.1109 41.0485C22.9692 34.148 27.8094 28.2502 34.0196 24.1006C40.2298 19.9511 47.531 17.7363 55 17.7363C62.469 17.7363 69.7702 19.9511 75.9804 24.1006C82.1906 28.2502 87.0308 34.148 89.8891 41.0485C92.7473 47.9489 93.4952 55.5419 92.0381 62.8673C90.5809 70.1928 86.9843 76.9216 81.703 82.2029L82.5 83Z" stroke="url(#paint0_linear)" stroke-width="2" mask="url(#path-1-inside-1)"/>
<path d="M53.7639 25.2968C54.5673 25.0358 55.4327 25.0358 56.2361 25.2968L71.3975 30.223C72.2009 30.4841 72.901 30.9927 73.3975 31.6761L82.7678 44.5732C83.2643 45.2566 83.5317 46.0796 83.5317 46.9243V62.866C83.5317 63.7107 83.2643 64.5338 82.7678 65.2171L73.3975 78.1142C72.901 78.7976 72.2009 79.3063 71.3975 79.5673L56.2361 84.4935C55.4327 84.7546 54.5673 84.7546 53.7639 84.4935L38.6025 79.5673C37.7991 79.3063 37.099 78.7976 36.6025 78.1142L27.2322 65.2171C26.7357 64.5338 26.4683 63.7107 26.4683 62.866V46.9243C26.4683 46.0796 26.7357 45.2566 27.2322 44.5732L36.6025 31.6761C37.099 30.9927 37.7991 30.4841 38.6025 30.223L53.7639 25.2968Z" fill="url(#paint1_linear)"/>
<path d="M54.4824 30.3564C54.8215 30.2656 55.1785 30.2656 55.5176 30.3564L66.9824 33.4284C67.3215 33.5193 67.6307 33.6978 67.8789 33.946L76.2717 42.3388C76.5199 42.5871 76.6985 42.8963 76.7893 43.2354L79.8613 54.7001C79.9522 55.0392 79.9522 55.3963 79.8613 55.7354L76.7893 67.2001C76.6985 67.5392 76.5199 67.8484 76.2717 68.0967L67.8789 76.4894C67.6307 76.7377 67.3215 76.9162 66.9824 77.0071L55.5176 80.079C55.1785 80.1699 54.8215 80.1699 54.4824 80.079L43.0176 77.0071C42.6785 76.9162 42.3693 76.7377 42.1211 76.4894L33.7283 68.0967C33.4801 67.8484 33.3015 67.5392 33.2107 67.2001L30.1387 55.7354C30.0478 55.3963 30.0478 55.0392 30.1387 54.7001L33.2107 43.2354C33.3015 42.8963 33.4801 42.5871 33.7283 42.3388L42.1211 33.946C42.3693 33.6978 42.6785 33.5193 43.0176 33.4284L54.4824 30.3564Z" fill="#121212"/>
<rect x="53" y="30.2177" width="3.54839" height="25" rx="1.77419" fill="white"/>
<defs>
<linearGradient id="paint0_linear" x1="93.3723" y1="75.7233" x2="22.3317" y2="79.3531" gradientUnits="userSpaceOnUse">
<stop offset="0.0480141" stop-color="#595959"/>
<stop offset="1" stop-color="#D5D5D5"/>
</linearGradient>
<linearGradient id="paint1_linear" x1="55" y1="24.8952" x2="55" y2="84.8952" gradientUnits="userSpaceOnUse">
<stop stop-color="#262626"/>
<stop offset="1" stop-color="#030303"/>
</linearGradient>
</defs>
</svg>
