<svg width="44" height="70" viewBox="0 0 44 70" fill="none" xmlns="http://www.w3.org/2000/svg">
<rect width="44" height="70" rx="10" fill="#323232"/>
<path d="M15.7462 28.1084C16.4435 27.3992 17.3939 26.996 18.3884 26.9876L27.3203 26.9116C28.3148 26.9032 29.2719 27.2901 29.9811 27.9874L36.3506 34.2495C37.0598 34.9467 37.463 35.8972 37.4714 36.8917L37.5474 45.8235C37.5558 46.8181 37.1688 47.7752 36.4716 48.4844L30.2095 54.8539C29.5122 55.5631 28.5618 55.9663 27.5673 55.9747L18.6354 56.0506C17.6409 56.0591 16.6838 55.6721 15.9746 54.9749L9.60511 48.7128C8.8959 48.0155 8.49272 47.0651 8.48426 46.0706L8.40834 37.1387C8.39989 36.1442 8.78686 35.1871 9.48412 34.4778L15.7462 28.1084Z" fill="#F3F3F3" stroke="#9D9D9D" stroke-width="0.5"/>
<g style="mix-blend-mode:hard-light">
<circle cx="23" cy="42" r="11" fill="#4F4F4F" fill-opacity="0.95"/>
</g>
<circle cx="23" cy="42" r="8" fill="black"/>
</svg>
