<svg width="42" height="43" viewBox="0 0 42 43" fill="none" xmlns="http://www.w3.org/2000/svg">
<path d="M13.7462 8.1084C14.4435 7.39919 15.3939 6.99601 16.3884 6.98755L25.3203 6.91163C26.3148 6.90318 27.2719 7.29015 27.9811 7.98741L34.3506 14.2495C35.0598 14.9467 35.463 15.8972 35.4714 16.8917L35.5474 25.8235C35.5558 26.8181 35.1688 27.7752 34.4716 28.4844L28.2095 34.8539C27.5122 35.5631 26.5618 35.9663 25.5673 35.9747L16.6354 36.0506C15.6409 36.0591 14.6838 35.6721 13.9746 34.9749L7.60511 28.7128C6.8959 28.0155 6.49272 27.0651 6.48426 26.0706L6.40834 17.1387C6.39989 16.1442 6.78686 15.1871 7.48412 14.4778L13.7462 8.1084Z" fill="#F3F3F3" stroke="#9D9D9D" stroke-width="0.5"/>
<g style="mix-blend-mode:hard-light">
<circle cx="21" cy="22" r="11" fill="#4F4F4F" fill-opacity="0.95"/>
</g>
<circle cx="21" cy="22" r="8" fill="black"/>
</svg>
