<svg width="54" height="55" viewBox="0 0 54 55" fill="none" xmlns="http://www.w3.org/2000/svg">
<path d="M16.6975 11.0862C18.1849 9.57323 20.2125 8.71311 22.3342 8.69508L31.3015 8.61886C33.4231 8.60083 35.4651 9.42635 36.9781 10.9138L43.3728 17.2008C44.8858 18.6883 45.7459 20.7159 45.7639 22.8375L45.8401 31.8048C45.8582 33.9265 45.0326 35.9684 43.5452 37.4814L37.2582 43.8761C35.7707 45.3891 33.7431 46.2492 31.6215 46.2672L22.6542 46.3435C20.5325 46.3615 18.4906 45.536 16.9776 44.0485L10.5829 37.7615C9.06992 36.2741 8.2098 34.2465 8.19177 32.1248L8.11555 23.1575C8.09751 21.0359 8.92304 18.9939 10.4105 17.4809L16.6975 11.0862Z" fill="#323232"/>
<path d="M22.3884 12.9876L31.3203 12.9116C32.3148 12.9032 33.2719 13.2901 33.9812 13.9874L40.3506 20.2495C41.0598 20.9467 41.463 21.8972 41.4715 22.8917L41.5474 31.8235C41.5558 32.8181 41.1689 33.7752 40.4716 34.4844L34.2095 40.8539C33.5123 41.5631 32.5618 41.9663 31.5673 41.9747L22.6355 42.0506C21.6409 42.0591 20.6838 41.6721 19.9746 40.9749L13.6051 34.7128C12.8959 34.0155 12.4927 33.0651 12.4843 32.0706L12.4084 23.1387C12.3999 22.1442 12.7869 21.1871 13.4841 20.4778L19.7462 14.1084C20.4435 13.3992 21.3939 12.996 22.3884 12.9876Z" fill="#F3F3F3" stroke="#9D9D9D" stroke-width="0.5"/>
<g style="mix-blend-mode:hard-light">
<circle cx="27" cy="28" r="11" fill="#4F4F4F" fill-opacity="0.95"/>
</g>
<circle cx="27" cy="28" r="8" fill="black"/>
</svg>
